<svg xmlns="http://www.w3.org/2000/svg" viewBox="0 0 192 192">
  <rect width="192" height="192" rx="42" fill="#0f172a"/>
  <rect x="20" y="20" width="152" height="152" rx="28" fill="#1e293b"/>
  <!-- Briefcase icon -->
  <path d="M68 76 h56 a8 8 0 0 1 8 8 v44 a8 8 0 0 1-8 8 H68 a8 8 0 0 1-8-8 V84 a8 8 0 0 1 8-8z" fill="none" stroke="#6366f1" stroke-width="7" stroke-linejoin="round"/>
  <path d="M82 76 v-8 a6 6 0 0 1 6-6 h16 a6 6 0 0 1 6 6 v8" fill="none" stroke="#6366f1" stroke-width="7" stroke-linecap="round"/>
  <line x1="60" y1="100" x2="132" y2="100" stroke="#6366f1" stroke-width="5"/>
  <!-- Upward arrow trend -->
  <polyline points="74,118 88,108 102,114 118,100" fill="none" stroke="#22c55e" stroke-width="5" stroke-linecap="round" stroke-linejoin="round"/>
  <polyline points="112,100 118,100 118,106" fill="none" stroke="#22c55e" stroke-width="5" stroke-linecap="round" stroke-linejoin="round"/>
</svg>
